<svg width="34" height="34" viewBox="0 0 34 34" fill="none" xmlns="http://www.w3.org/2000/svg">
<path d="M0 9C0 4.02944 4.02944 0 9 0H25C29.9706 0 34 4.02944 34 9V25C34 29.9706 29.9706 34 25 34H9C4.02944 34 0 29.9706 0 25V9Z" fill="#695342"/>
<path fill-rule="evenodd" clip-rule="evenodd" d="M27.0845 4L29 5.83892L23.8503 10.7828C26.37 14.0501 26.0742 18.5115 22.9629 21.4984C20.2539 24.099 13.9329 26.2662 4 28C5.80596 18.4644 8.06345 12.3962 10.7725 9.79563C13.8838 6.80873 18.5312 6.52476 21.9346 8.9437L27.0845 4ZM22.3437 9.52634L19.343 12.3962H12.8042V13.6966H17.9834L13.9045 17.5975H10.0952V18.8978H12.5449L6.90735 24.2895L7.86512 25.2089L13.4814 19.8375V22.1486H14.8359L14.8359 18.5421L18.8994 14.6559V19.5479H20.2539V13.3605L23.3015 10.4458L22.3437 9.52634Z" fill="white"/>
</svg>
